# xmcd
#
# Track frame offsets:
#	150
#	17996
#	35250
#	50703
#	68036
#	83339
#	99392
#	114873
#
# Disc length: 1762 seconds
#
# Revision: 1
# Processed by: cddbd v1.5.2PL0 Copyright (c) Steve Scherf et al.
# Submitted via: audiograbber 1.83.01
#
DISCID=5706e008
DTITLE=Jonah's Road - Jonah's Road
DYEAR=1900
DGENRE=Country
TTITLE0=Stars
TTITLE1=Heartbeat
TTITLE2=Walk On Water
TTITLE3=Everything To Me
TTITLE4=Got A Little Love
TTITLE5=Another Love
TTITLE6=She's The One
TTITLE7=All My Life
EXTD=
EXTT0=
EXTT1=
EXTT2=
EXTT3=
EXTT4=
EXTT5=
EXTT6=
EXTT7=
PLAYORDER=
